PathFileType	4	(X/Y/Z)	C:\Users\Admin\Desktop\Capture Files\05302019 Reflex Trials\StaticTrial_1-Unnamed.trc
DataRate	CameraRate	NumFrames	NumMarkers	Units	OrigDataRate	OrigDataStartFrame	OrigNumFrames
300.00	300.00	      20	0	mm	300.00	285	      1137
Frame#	Time	
		

285	0.947	579.37659	-624.13098	918.15149				498.05737	-499.38431	874.63452	896.30695	-726.31458	1114.42090	432.03973	-312.71103	455.67941	180.02089	-512.66766	611.08832	158.06676	-529.07098	409.45062	821.83771	-766.48505	1020.16956	291.02713	-499.30408	729.66699				182.90245	-589.02423	725.06226	370.88950	-425.41705	715.04950	499.86813	-364.88071	739.29980				428.53101	-327.07858	639.93311	
286	0.950	579.38287	-624.13116	918.14551				498.03918	-499.38687	874.63855	896.35815	-726.34375	1114.39441	432.06854	-312.72763	455.66495	180.03087	-512.67719	611.06171	158.07933	-529.06934	409.45065	821.81927	-766.51166	1020.16296	291.03006	-499.31586	729.66187				182.88420	-589.02026	725.05896	370.87326	-425.44846	715.04993	499.88147	-364.87234	739.29303				428.52832	-327.07684	639.94806	
287	0.953	579.38159	-624.14691	918.14984				498.03394	-499.38431	874.62122	896.28809	-726.28564	1114.40015	432.04559	-312.71921	455.66797	180.03847	-512.65863	611.06390	158.05734	-529.06537	409.44305	821.90570	-766.52771	1020.18262	290.99493	-499.31573	729.65210				182.89847	-589.03387	725.06409	370.88516	-425.43262	715.05634	499.86755	-364.87173	739.29865				428.53592	-327.08014	639.96497	
288	0.957	579.37073	-624.14459	918.14789				498.04602	-499.35983	874.65387	896.33813	-726.36407	1114.41455	432.04019	-312.73007	455.66043	180.02362	-512.64758	611.05432	158.06355	-529.09595	409.46521	821.89539	-766.52539	1020.15582	290.24411	-498.72406	730.15540				182.88017	-589.01038	725.06177	370.87704	-425.42969	715.05579	499.88080	-364.87430	739.29639				428.55182	-327.08765	639.93939	
289	0.960	579.37665	-624.15857	918.13123				498.02036	-499.39978	874.62756	896.33258	-726.35773	1114.38354	432.04556	-312.72021	455.68301	180.02734	-512.66211	611.06860	158.07249	-529.07379	409.46246	821.87762	-766.52679	1020.13965	290.26141	-498.73639	730.16473				182.87816	-589.01715	725.07208	370.88757	-425.45383	715.05658	499.87088	-364.86884	739.28418				428.52780	-327.07861	639.94409	
290	0.963	579.36395	-624.17767	918.16113				498.01605	-499.37894	874.64105	896.35028	-726.34332	1114.41333	432.02689	-312.70667	455.69516	180.03500	-512.67206	611.05493	158.06964	-529.07178	409.43741	821.84857	-766.49939	1020.14978	291.02255	-499.34494	729.63568				182.86340	-589.01636	725.06860	370.88000	-425.43311	715.05853	499.84921	-364.87048	739.29346				428.52997	-327.09128	639.92877	
291	0.967	579.36090	-624.15698	918.14764				498.03793	-499.37607	874.65515	896.29706	-726.33514	1114.42639	432.04004	-312.72281	455.68286	180.02899	-512.67932	611.05396	158.08980	-529.07550	409.46234	821.88593	-766.48358	1020.14337	290.99805	-499.30875	729.65485				182.85924	-589.04327	725.04401	370.84772	-425.43030	715.05414	499.85687	-364.88904	739.30524				428.52979	-327.09726	639.94305	
292	0.970	579.36298	-624.16156	918.15375				498.02823	-499.43271	874.64288	896.30310	-726.28802	1114.43457	432.03055	-312.71527	455.69128	180.02888	-512.64307	611.04633	158.10504	-529.09131	409.43362	821.94098	-766.55054	1020.15027	290.22949	-498.73251	730.14386				182.86421	-589.03082	725.05933	370.86850	-425.43649	715.04102	499.85764	-364.88098	739.29395				428.54272	-327.08896	639.93103	
293	0.973	579.34637	-624.19061	918.13745				498.01276	-499.38245	874.64819	896.32196	-726.29669	1114.40918	432.03555	-312.72449	455.67914	180.03061	-512.68097	611.04572	158.08891	-529.07983	409.42999	821.93622	-766.55273	1020.15155	290.24710	-498.73178	730.14795				182.84613	-589.03680	725.04468	370.87442	-425.44376	715.04108	499.86636	-364.88040	739.30554				428.50955	-327.08902	639.93903	
294	0.977	579.31909	-624.18683	918.13562				498.00784	-499.41168	874.62555	896.40881	-726.38220	1114.37781	432.03931	-312.73578	455.68765	180.02693	-512.68372	611.05170	158.10985	-529.09247	409.44046	821.88000	-766.47321	1020.15149	290.24622	-498.74402	730.15729				182.84538	-589.03436	725.04388	370.84897	-425.42609	715.06293	499.84735	-364.88141	739.29529				428.52692	-327.09399	639.94476	
295	0.980	579.32318	-624.17780	918.15063				498.00540	-499.40826	874.64191	896.26270	-726.24066	1114.41272	432.04541	-312.73926	455.69876	180.04225	-512.69727	611.03638	158.10147	-529.10181	409.42609	821.87549	-766.48700	1020.13702	291.00531	-499.31873	729.64264				182.86296	-589.02765	725.05219	370.84402	-425.42825	715.05798	499.85782	-364.88333	739.30682				428.51273	-327.09671	639.94537	
296	0.983	579.31323	-624.18481	918.15558				498.00827	-499.41849	874.63007	896.29578	-726.24365	1114.40112	432.01498	-312.71686	455.69333	180.01610	-512.67761	611.05487	158.11205	-529.08398	409.42914	821.94238	-766.52551	1020.11713	291.00824	-499.32138	729.64874				182.85381	-589.05652	725.04352	370.84360	-425.41888	715.04572	499.83191	-364.88898	739.30280				428.50372	-327.10870	639.95197	
297	0.987	579.32098	-624.18890	918.14850				497.98874	-499.41641	874.63177	896.32312	-726.30804	1114.39636	432.01508	-312.72406	455.68372	180.04858	-512.69000	611.04138	158.10506	-529.09662	409.44437	821.92279	-766.49084	1020.11749	290.98663	-499.33011	729.65930				182.85728	-589.04877	725.03558	370.85620	-425.43900	715.05786	499.82553	-364.89145	739.30560				428.51044	-327.09875	639.94336	
298	0.990	579.31885	-624.18402	918.14545				497.99106	-499.42505	874.62372	896.35266	-726.36353	1114.39832	432.01218	-312.72556	455.70013	180.01677	-512.69714	611.04022	158.12961	-529.08752	409.41718	821.85101	-766.44733	1020.15381	290.99411	-499.33008	729.65088				182.86885	-589.05176	725.02338	370.83835	-425.44489	715.06390	499.83649	-364.90604	739.30920				428.49985	-327.11481	639.95056	
299	0.993	579.32306	-624.21143	918.15082	863.09949	-849.44476	1269.14417	497.97916	-499.44064	874.64673	896.30640	-726.28809	1114.37427	432.00146	-312.71945	455.70538	180.05125	-512.71863	611.02246	158.11554	-529.11902	409.41898	821.94043	-766.48407	1020.15625	291.01257	-499.33371	729.67340				182.85023	-589.03577	725.02618	370.83575	-425.43695	715.05542	499.82864	-364.88614	739.31409				428.49866	-327.10156	639.95679	
300	0.997	579.31793	-624.21454	918.14783				497.95782	-499.41510	874.64874	896.37219	-726.32819	1114.36816	432.01468	-312.73718	455.70871	180.02997	-512.70941	611.03333	158.14374	-529.11139	409.39178	821.94592	-766.53839	1020.14276	290.99109	-499.32458	729.63910				182.85475	-589.04474	725.01398	370.83289	-425.45767	715.06171	499.82169	-364.90475	739.31299				428.50717	-327.11160	639.95862	
301	1.000	579.32819	-624.23230	918.14063				497.95435	-499.43237	874.65436	896.32001	-726.26813	1114.39600	432.01028	-312.72186	455.70963	180.01878	-512.71759	611.02734	158.12074	-529.11823	409.40500	822.00702	-766.56915	1020.14331	290.98462	-499.35321	729.63934				182.85660	-589.06049	725.02948	370.83859	-425.45270	715.06122	499.81821	-364.89047	739.32141				428.49799	-327.11475	639.95660	
302	1.003	579.32001	-624.22400	918.13696	862.93268	-849.21918	1269.11951	497.99658	-499.44818	874.64764	896.31097	-726.29187	1114.36890	432.01419	-312.72626	455.71350	180.03226	-512.70770	611.02539	158.13631	-529.13397	409.40335	822.02197	-766.57782	1020.15112	290.97958	-499.35123	729.67773				182.86734	-589.06012	725.02673	370.83994	-425.47519	715.04132	499.81516	-364.91492	739.31061				428.49744	-327.12259	639.95703	
303	1.007	579.30981	-624.22308	918.14728	863.25079	-849.73810	1269.16235	497.95517	-499.44278	874.63501	896.34735	-726.32520	1114.41772	432.00732	-312.74118	455.70807	180.01254	-512.71918	611.03491	158.13309	-529.13068	409.40967	821.98083	-766.55963	1020.13593	290.96857	-499.33987	729.67743				182.85820	-589.07581	725.01343	370.82541	-425.46063	715.05426	499.82278	-364.91486	739.32684				428.48767	-327.11533	639.95111	
304	1.010	579.30957	-624.20697	918.15472				497.95410	-499.44989	874.64697	896.31470	-726.25214	1114.39368	431.99664	-312.72501	455.71564	180.00816	-512.72870	611.03223	158.14732	-529.11377	409.40302	821.95422	-766.49445	1020.15167	290.97751	-499.35178	729.66028				182.84953	-589.09210	725.01929	370.83170	-425.45456	715.07001	499.80994	-364.91299	739.33795				428.48584	-327.12418	639.97327	
